<svg width="157.276489" height="48.784058" viewBox="0 0 157.276 48.7841" fill="none" xmlns="http://www.w3.org/2000/svg" xmlns:xlink="http://www.w3.org/1999/xlink">
	<desc>
			Created with Pixso.
	</desc>
	<defs>
		<filter id="filter_188_671_dd" x="0.000000" y="0.000000" width="157.276489" height="48.784058" filterUnits="userSpaceOnUse" color-interpolation-filters="sRGB">
			<feFlood flood-opacity="0" result="BackgroundImageFix"/>
			<feColorMatrix in="SourceAlpha" type="matrix" values="0 0 0 0 0 0 0 0 0 0 0 0 0 0 0 0 0 0 127 0" result="hardAlpha"/>
			<feOffset dx="0" dy="4"/>
			<feGaussianBlur stdDeviation="1.33333"/>
			<feComposite in2="hardAlpha" operator="out" k2="-1" k3="1"/>
			<feColorMatrix type="matrix" values="0 0 0 0 0 0 0 0 0 0 0 0 0 0 0 0 0 0 0.25 0"/>
			<feBlend mode="normal" in2="BackgroundImageFix" result="effect_dropShadow_1"/>
			<feColorMatrix in="SourceAlpha" type="matrix" values="0 0 0 0 0 0 0 0 0 0 0 0 0 0 0 0 0 0 127 0" result="hardAlpha"/>
			<feOffset dx="0" dy="4"/>
			<feGaussianBlur stdDeviation="1.33333"/>
			<feComposite in2="hardAlpha" operator="out" k2="-1" k3="1"/>
			<feColorMatrix type="matrix" values="0 0 0 0 0 0 0 0 0 0 0 0 0 0 0 0 0 0 0.25 0"/>
			<feBlend mode="normal" in2="effect_dropShadow_1" result="effect_dropShadow_2"/>
			<feBlend mode="normal" in="SourceGraphic" in2="effect_dropShadow_2" result="shape"/>
		</filter>
	</defs>
	<g filter="url(#filter_188_671_dd)">
		<path id="30% OFF FOR WOMEN" d="M7.23999 25.808L7.23999 30.944L13.744 30.944L13.744 33.524L7.23999 33.524L7.23999 40.592L3.99999 40.592L3.99999 23.24L14.944 23.24L14.944 25.808L7.23999 25.808ZM33.9777 31.916C33.9777 33.188 33.7657 34.368 33.3417 35.456C32.9257 36.536 32.3337 37.472 31.5657 38.264C30.7977 39.056 29.8737 39.676 28.7937 40.124C27.7137 40.564 26.5137 40.784 25.1937 40.784C23.8817 40.784 22.6857 40.564 21.6057 40.124C20.5257 39.676 19.5977 39.056 18.8217 38.264C18.0537 37.472 17.4577 36.536 17.0337 35.456C16.6097 34.368 16.3977 33.188 16.3977 31.916C16.3977 30.644 16.6097 29.468 17.0337 28.388C17.4577 27.3 18.0537 26.36 18.8217 25.568C19.5977 24.776 20.5257 24.16 21.6057 23.72C22.6857 23.272 23.8817 23.048 25.1937 23.048C26.0737 23.048 26.9017 23.152 27.6777 23.36C28.4537 23.56 29.1657 23.848 29.8137 24.224C30.4617 24.592 31.0417 25.044 31.5537 25.58C32.0737 26.108 32.5137 26.7 32.8737 27.356C33.2337 28.012 33.5057 28.724 33.6897 29.492C33.8817 30.26 33.9777 31.068 33.9777 31.916ZM30.6777 31.916C30.6777 30.964 30.5497 30.112 30.2937 29.36C30.0377 28.6 29.6737 27.956 29.2017 27.428C28.7297 26.9 28.1537 26.496 27.4737 26.216C26.8017 25.936 26.0417 25.796 25.1937 25.796C24.3457 25.796 23.5817 25.936 22.9017 26.216C22.2297 26.496 21.6537 26.9 21.1737 27.428C20.7017 27.956 20.3377 28.6 20.0817 29.36C19.8257 30.112 19.6977 30.964 19.6977 31.916C19.6977 32.868 19.8257 33.724 20.0817 34.484C20.3377 35.236 20.7017 35.876 21.1737 36.404C21.6537 36.924 22.2297 37.324 22.9017 37.604C23.5817 37.884 24.3457 38.024 25.1937 38.024C26.0417 38.024 26.8017 37.884 27.4737 37.604C28.1537 37.324 28.7297 36.924 29.2017 36.404C29.6737 35.876 30.0377 35.236 30.2937 34.484C30.5497 33.724 30.6777 32.868 30.6777 31.916ZM42.0565 31.496C42.6645 31.496 43.1925 31.42 43.6405 31.268C44.0965 31.116 44.4685 30.908 44.7565 30.644C45.0525 30.372 45.2725 30.052 45.4165 29.684C45.5605 29.316 45.6325 28.912 45.6325 28.472C45.6325 27.592 45.3405 26.916 44.7565 26.444C44.1805 25.972 43.2965 25.736 42.1045 25.736L40.0405 25.736L40.0405 31.496L42.0565 31.496ZM50.3605 40.592L47.4445 40.592C46.8925 40.592 46.4925 40.376 46.2445 39.944L42.5965 34.388C42.4605 34.18 42.3085 34.032 42.1405 33.944C41.9805 33.856 41.7405 33.812 41.4205 33.812L40.0405 33.812L40.0405 40.592L36.8125 40.592L36.8125 23.24L42.1045 23.24C43.2805 23.24 44.2885 23.364 45.1285 23.612C45.9765 23.852 46.6685 24.192 47.2045 24.632C47.7485 25.072 48.1485 25.6 48.4045 26.216C48.6605 26.824 48.7885 27.496 48.7885 28.232C48.7885 28.816 48.7005 29.368 48.5245 29.888C48.3565 30.408 48.1085 30.88 47.7805 31.304C47.4605 31.728 47.0605 32.1 46.5805 32.42C46.1085 32.74 45.5685 32.992 44.9605 33.176C45.1685 33.296 45.3605 33.44 45.5365 33.608C45.7125 33.768 45.8725 33.96 46.0165 34.184L50.3605 40.592ZM80.9942 23.24L75.6062 40.592L72.6902 40.592L68.8982 28.736C68.7942 28.448 68.6982 28.096 68.6102 27.68C68.5622 27.88 68.5142 28.068 68.4662 28.244C68.4182 28.42 68.3662 28.584 68.3102 28.736L64.4822 40.592L61.5542 40.592L56.1782 23.24L58.8782 23.24C59.1582 23.24 59.3902 23.308 59.5742 23.444C59.7662 23.572 59.8942 23.748 59.9582 23.972L62.9102 34.352C62.9742 34.608 63.0342 34.888 63.0902 35.192C63.1542 35.488 63.2182 35.8 63.2822 36.128C63.3462 35.792 63.4142 35.476 63.4862 35.18C63.5662 34.884 63.6502 34.608 63.7382 34.352L67.1462 23.972C67.2102 23.788 67.3342 23.62 67.5182 23.468C67.7102 23.316 67.9422 23.24 68.2142 23.24L69.1622 23.24C69.4422 23.24 69.6702 23.308 69.8462 23.444C70.0222 23.58 70.1542 23.756 70.2422 23.972L73.6382 34.352C73.8062 34.848 73.9582 35.42 74.0942 36.068C74.1982 35.436 74.3142 34.864 74.4422 34.352L77.3942 23.972C77.4422 23.772 77.5622 23.6 77.7542 23.456C77.9542 23.312 78.1902 23.24 78.4622 23.24L80.9942 23.24ZM99.3214 31.916C99.3214 33.188 99.1094 34.368 98.6854 35.456C98.2694 36.536 97.6774 37.472 96.9094 38.264C96.1414 39.056 95.2174 39.676 94.1374 40.124C93.0574 40.564 91.8574 40.784 90.5374 40.784C89.2254 40.784 88.0294 40.564 86.9494 40.124C85.8694 39.676 84.9414 39.056 84.1654 38.264C83.3974 37.472 82.8014 36.536 82.3774 35.456C81.9534 34.368 81.7414 33.188 81.7414 31.916C81.7414 30.644 81.9534 29.468 82.3774 28.388C82.8014 27.3 83.3974 26.36 84.1654 25.568C84.9414 24.776 85.8694 24.16 86.9494 23.72C88.0294 23.272 89.2254 23.048 90.5374 23.048C91.4174 23.048 92.2454 23.152 93.0214 23.36C93.7974 23.56 94.5094 23.848 95.1574 24.224C95.8054 24.592 96.3854 25.044 96.8974 25.58C97.4174 26.108 97.8574 26.7 98.2174 27.356C98.5774 28.012 98.8494 28.724 99.0334 29.492C99.2254 30.26 99.3214 31.068 99.3214 31.916ZM96.0214 31.916C96.0214 30.964 95.8934 30.112 95.6374 29.36C95.3814 28.6 95.0174 27.956 94.5454 27.428C94.0734 26.9 93.4974 26.496 92.8174 26.216C92.1454 25.936 91.3854 25.796 90.5374 25.796C89.6894 25.796 88.9254 25.936 88.2454 26.216C87.5734 26.496 86.9974 26.9 86.5174 27.428C86.0454 27.956 85.6814 28.6 85.4254 29.36C85.1694 30.112 85.0414 30.964 85.0414 31.916C85.0414 32.868 85.1694 33.724 85.4254 34.484C85.6814 35.236 86.0454 35.876 86.5174 36.404C86.9974 36.924 87.5734 37.324 88.2454 37.604C88.9254 37.884 89.6894 38.024 90.5374 38.024C91.3854 38.024 92.1454 37.884 92.8174 37.604C93.4974 37.324 94.0734 36.924 94.5454 36.404C95.0174 35.876 95.3814 35.236 95.6374 34.484C95.8934 33.724 96.0214 32.868 96.0214 31.916ZM120.972 23.24L120.972 40.592L118.128 40.592L118.128 29.384C118.128 28.936 118.152 28.452 118.2 27.932L112.956 37.784C112.708 38.256 112.328 38.492 111.816 38.492L111.36 38.492C110.848 38.492 110.468 38.256 110.22 37.784L104.916 27.896C104.94 28.16 104.96 28.42 104.976 28.676C104.992 28.932 105 29.168 105 29.384L105 40.592L102.156 40.592L102.156 23.24L104.592 23.24C104.736 23.24 104.86 23.244 104.964 23.252C105.068 23.26 105.16 23.28 105.24 23.312C105.328 23.344 105.404 23.396 105.468 23.468C105.54 23.54 105.608 23.636 105.672 23.756L110.868 33.392C111.004 33.648 111.128 33.912 111.24 34.184C111.36 34.456 111.476 34.736 111.588 35.024C111.7 34.728 111.816 34.444 111.936 34.172C112.056 33.892 112.184 33.624 112.32 33.368L117.444 23.756C117.508 23.636 117.576 23.54 117.648 23.468C117.72 23.396 117.796 23.344 117.876 23.312C117.964 23.28 118.06 23.26 118.164 23.252C118.268 23.244 118.392 23.24 118.536 23.24L120.972 23.24ZM128.084 25.808L128.084 30.62L134.156 30.62L134.156 33.104L128.084 33.104L128.084 38.012L135.788 38.012L135.788 40.592L124.844 40.592L124.844 23.24L135.788 23.24L135.788 25.808L128.084 25.808ZM153.276 23.24L153.276 40.592L151.62 40.592C151.364 40.592 151.148 40.552 150.972 40.472C150.804 40.384 150.64 40.24 150.48 40.04L141.42 28.472C141.468 29 141.492 29.488 141.492 29.936L141.492 40.592L138.648 40.592L138.648 23.24L140.34 23.24C140.476 23.24 140.592 23.248 140.688 23.264C140.792 23.272 140.88 23.296 140.952 23.336C141.032 23.368 141.108 23.42 141.18 23.492C141.252 23.556 141.332 23.644 141.42 23.756L150.516 35.372C150.492 35.092 150.472 34.816 150.456 34.544C150.44 34.272 150.432 34.02 150.432 33.788L150.432 23.24L153.276 23.24Z" fill="#F16D7F" fill-opacity="1.000000" fill-rule="evenodd"/>
		<path id="30% OFF FOR WOMEN" d="M46.483 3.23202C46.5577 2.70936 46.7017 2.24802 46.915 1.84802C47.1283 1.44269 47.3977 1.10402 47.723 0.832025C48.0537 0.560024 48.4297 0.354692 48.851 0.216024C49.2777 0.0720243 49.7363 2.38419e-05 50.227 2.38419e-05C50.7123 2.38419e-05 51.1603 0.0693569 51.571 0.208024C51.9817 0.346691 52.3337 0.544024 52.627 0.800024C52.9257 1.05602 53.1577 1.36536 53.323 1.72802C53.4883 2.09069 53.571 2.49336 53.571 2.93602C53.571 3.29869 53.523 3.62402 53.427 3.91202C53.3363 4.19469 53.203 4.44269 53.027 4.65602C52.8563 4.86936 52.6483 5.05069 52.403 5.20002C52.1577 5.34936 51.883 5.47202 51.579 5.56802C52.3257 5.76003 52.8857 6.09069 53.259 6.56002C53.6377 7.02402 53.827 7.60536 53.827 8.30402C53.827 8.83202 53.7257 9.30669 53.523 9.72802C53.3257 10.1494 53.0537 10.5094 52.707 10.808C52.3603 11.1014 51.955 11.328 51.491 11.488C51.0323 11.6427 50.539 11.72 50.011 11.72C49.403 11.72 48.883 11.6454 48.451 11.496C48.019 11.3414 47.6537 11.1307 47.355 10.864C47.0563 10.5974 46.811 10.2827 46.619 9.92002C46.427 9.55202 46.2643 9.15469 46.131 8.72802L46.747 8.47202C46.907 8.40269 47.0617 8.38402 47.211 8.41603C47.3657 8.44802 47.4777 8.53602 47.547 8.68003C47.6163 8.82936 47.7017 9.00802 47.803 9.21602C47.9097 9.42402 48.0537 9.62402 48.235 9.81602C48.4163 10.008 48.6457 10.1707 48.923 10.304C49.2057 10.4374 49.563 10.504 49.995 10.504C50.395 10.504 50.7443 10.44 51.043 10.312C51.347 10.1787 51.5977 10.008 51.795 9.80002C51.9977 9.59202 52.1497 9.36002 52.251 9.10402C52.3523 8.84802 52.403 8.59469 52.403 8.34402C52.403 8.03469 52.363 7.75202 52.283 7.49603C52.203 7.24002 52.0537 7.01869 51.835 6.83202C51.6163 6.64536 51.315 6.49869 50.931 6.39202C50.5523 6.28536 50.0643 6.23203 49.467 6.23203L49.467 5.20002C49.9577 5.19469 50.3737 5.14136 50.715 5.04002C51.0617 4.93869 51.3417 4.80002 51.555 4.62402C51.7737 4.44802 51.931 4.23736 52.027 3.99202C52.1283 3.74669 52.179 3.47469 52.179 3.17602C52.179 2.84536 52.1257 2.55736 52.019 2.31202C51.9177 2.06669 51.7763 1.86402 51.595 1.70402C51.4137 1.54402 51.1977 1.42402 50.947 1.34402C50.7017 1.26402 50.435 1.22402 50.147 1.22402C49.859 1.22402 49.5897 1.26669 49.339 1.35202C49.0937 1.43736 48.875 1.55736 48.683 1.71202C48.4963 1.86136 48.339 2.04002 48.211 2.24802C48.083 2.45602 47.9923 2.68536 47.939 2.93602C47.8697 3.12269 47.7817 3.24802 47.675 3.31202C47.5737 3.37069 47.4243 3.38669 47.227 3.36002L46.483 3.23202ZM63.5242 5.86403C63.5242 6.86669 63.4149 7.73602 63.1962 8.47202C62.9829 9.20269 62.6896 9.80802 62.3162 10.288C61.9429 10.768 61.5002 11.1254 60.9882 11.36C60.4816 11.5947 59.9376 11.712 59.3562 11.712C58.7696 11.712 58.2229 11.5947 57.7162 11.36C57.2149 11.1254 56.7776 10.768 56.4042 10.288C56.0309 9.80802 55.7376 9.20269 55.5242 8.47202C55.3109 7.73602 55.2042 6.86669 55.2042 5.86403C55.2042 4.86136 55.3109 3.99202 55.5242 3.25602C55.7376 2.52002 56.0309 1.91202 56.4042 1.43202C56.7776 0.946691 57.2149 0.586691 57.7162 0.352024C58.2229 0.117357 58.7696 2.38419e-05 59.3562 2.38419e-05C59.9376 2.38419e-05 60.4816 0.117357 60.9882 0.352024C61.5002 0.586691 61.9429 0.946691 62.3162 1.43202C62.6896 1.91202 62.9829 2.52002 63.1962 3.25602C63.4149 3.99202 63.5242 4.86136 63.5242 5.86403ZM62.0442 5.86403C62.0442 4.98936 61.9696 4.25602 61.8202 3.66402C61.6762 3.06669 61.4789 2.58669 61.2282 2.22402C60.9829 1.86136 60.6976 1.60269 60.3722 1.44802C60.0469 1.28802 59.7082 1.20802 59.3562 1.20802C59.0042 1.20802 58.6656 1.28802 58.3402 1.44802C58.0149 1.60269 57.7296 1.86136 57.4842 2.22402C57.2389 2.58669 57.0416 3.06669 56.8922 3.66402C56.7482 4.25602 56.6762 4.98936 56.6762 5.86403C56.6762 6.73869 56.7482 7.47202 56.8922 8.06402C57.0416 8.65602 57.2389 9.13336 57.4842 9.49603C57.7296 9.85869 58.0149 10.12 58.3402 10.28C58.6656 10.4347 59.0042 10.512 59.3562 10.512C59.7082 10.512 60.0469 10.4347 60.3722 10.28C60.6976 10.12 60.9829 9.85869 61.2282 9.49603C61.4789 9.13336 61.6762 8.65602 61.8202 8.06402C61.9696 7.47202 62.0442 6.73869 62.0442 5.86403ZM69.7815 2.89602C69.7815 3.34402 69.7122 3.74669 69.5735 4.10402C69.4348 4.45602 69.2482 4.75469 69.0135 5.00002C68.7842 5.24002 68.5148 5.42402 68.2055 5.55202C67.9015 5.68003 67.5788 5.74402 67.2375 5.74402C66.8802 5.74402 66.5468 5.68003 66.2375 5.55202C65.9282 5.42402 65.6588 5.24002 65.4295 5.00002C65.2055 4.75469 65.0295 4.45602 64.9015 4.10402C64.7735 3.74669 64.7095 3.34402 64.7095 2.89602C64.7095 2.43736 64.7735 2.02936 64.9015 1.67202C65.0295 1.31469 65.2055 1.01336 65.4295 0.768024C65.6588 0.522691 65.9282 0.336024 66.2375 0.208024C66.5468 0.0800247 66.8802 0.0160246 67.2375 0.0160246C67.6002 0.0160246 67.9362 0.0800247 68.2455 0.208024C68.5548 0.336024 68.8242 0.522691 69.0535 0.768024C69.2828 1.01336 69.4615 1.31469 69.5895 1.67202C69.7175 2.02936 69.7815 2.43736 69.7815 2.89602ZM68.6775 2.89602C68.6775 2.54402 68.6402 2.24536 68.5655 2.00002C68.4908 1.75469 68.3868 1.55469 68.2535 1.40002C68.1255 1.24002 67.9735 1.12536 67.7975 1.05602C67.6215 0.986691 67.4348 0.952024 67.2375 0.952024C67.0402 0.952024 66.8562 0.986691 66.6855 1.05602C66.5148 1.12536 66.3655 1.24002 66.2375 1.40002C66.1095 1.55469 66.0082 1.75469 65.9335 2.00002C65.8588 2.24536 65.8215 2.54402 65.8215 2.89602C65.8215 3.24269 65.8588 3.53869 65.9335 3.78402C66.0082 4.02402 66.1095 4.22136 66.2375 4.37602C66.3655 4.52536 66.5148 4.63469 66.6855 4.70402C66.8562 4.76802 67.0402 4.80002 67.2375 4.80002C67.4348 4.80002 67.6215 4.76802 67.7975 4.70402C67.9735 4.63469 68.1255 4.52536 68.2535 4.37602C68.3868 4.22136 68.4908 4.02402 68.5655 3.78402C68.6402 3.53869 68.6775 3.24269 68.6775 2.89602ZM73.8375 0.368024C73.8908 0.304024 73.9522 0.248024 74.0215 0.200025C74.0962 0.152024 74.1948 0.128024 74.3175 0.128024L75.3495 0.128024L66.9655 11.36C66.9175 11.4294 66.8562 11.4854 66.7815 11.528C66.7068 11.5707 66.6162 11.592 66.5095 11.592L65.4615 11.592L73.8375 0.368024ZM76.1255 8.88802C76.1255 9.33603 76.0562 9.73602 75.9175 10.088C75.7788 10.44 75.5922 10.7387 75.3575 10.984C75.1282 11.224 74.8588 11.408 74.5495 11.536C74.2455 11.664 73.9228 11.728 73.5815 11.728C73.2188 11.728 72.8828 11.664 72.5735 11.536C72.2695 11.408 72.0028 11.224 71.7735 10.984C71.5495 10.7387 71.3735 10.44 71.2455 10.088C71.1175 9.73602 71.0535 9.33603 71.0535 8.88802C71.0535 8.42936 71.1175 8.02136 71.2455 7.66402C71.3735 7.30136 71.5495 6.99736 71.7735 6.75202C72.0028 6.50669 72.2695 6.32002 72.5735 6.19202C72.8828 6.06402 73.2188 6.00002 73.5815 6.00002C73.9388 6.00002 74.2722 6.06402 74.5815 6.19202C74.8962 6.32002 75.1655 6.50669 75.3895 6.75202C75.6188 6.99736 75.7975 7.30136 75.9255 7.66402C76.0588 8.02136 76.1255 8.42936 76.1255 8.88802ZM75.0215 8.88802C75.0215 8.53602 74.9842 8.23736 74.9095 7.99202C74.8348 7.74136 74.7308 7.53869 74.5975 7.38402C74.4695 7.22936 74.3175 7.11736 74.1415 7.04803C73.9655 6.97869 73.7788 6.94403 73.5815 6.94403C73.3842 6.94403 73.1975 6.97869 73.0215 7.04803C72.8508 7.11736 72.7015 7.22936 72.5735 7.38402C72.4455 7.53869 72.3442 7.74136 72.2695 7.99202C72.2002 8.23736 72.1655 8.53602 72.1655 8.88802C72.1655 9.23469 72.2002 9.52802 72.2695 9.76802C72.3442 10.008 72.4455 10.2054 72.5735 10.36C72.7015 10.5094 72.8508 10.6187 73.0215 10.688C73.1975 10.752 73.3842 10.784 73.5815 10.784C73.7788 10.784 73.9655 10.752 74.1415 10.688C74.3175 10.6187 74.4695 10.5094 74.5975 10.36C74.7308 10.2054 74.8348 10.008 74.9095 9.76802C74.9842 9.52802 75.0215 9.23469 75.0215 8.88802ZM92.9834 5.86403C92.9834 6.72269 92.8474 7.51202 92.5754 8.23203C92.3034 8.94669 91.9194 9.56269 91.4234 10.08C90.9274 10.5974 90.33 11 89.6314 11.288C88.938 11.5707 88.17 11.712 87.3274 11.712C86.4847 11.712 85.7167 11.5707 85.0234 11.288C84.33 11 83.7354 10.5974 83.2394 10.08C82.7434 9.56269 82.3594 8.94669 82.0874 8.23203C81.8154 7.51202 81.6794 6.72269 81.6794 5.86403C81.6794 5.00536 81.8154 4.21869 82.0874 3.50402C82.3594 2.78402 82.7434 2.16536 83.2394 1.64802C83.7354 1.12536 84.33 0.720024 85.0234 0.432024C85.7167 0.144024 86.4847 2.38419e-05 87.3274 2.38419e-05C88.17 2.38419e-05 88.938 0.144024 89.6314 0.432024C90.33 0.720024 90.9274 1.12536 91.4234 1.64802C91.9194 2.16536 92.3034 2.78402 92.5754 3.50402C92.8474 4.21869 92.9834 5.00536 92.9834 5.86403ZM91.3914 5.86403C91.3914 5.16002 91.2954 4.52802 91.1034 3.96802C90.9114 3.40802 90.6394 2.93602 90.2874 2.55202C89.9354 2.16269 89.5087 1.86402 89.0074 1.65602C88.506 1.44802 87.946 1.34402 87.3274 1.34402C86.714 1.34402 86.1567 1.44802 85.6554 1.65602C85.154 1.86402 84.7247 2.16269 84.3674 2.55202C84.0154 2.93602 83.7434 3.40802 83.5514 3.96802C83.3594 4.52802 83.2634 5.16002 83.2634 5.86403C83.2634 6.56802 83.3594 7.20002 83.5514 7.76003C83.7434 8.31469 84.0154 8.78669 84.3674 9.17602C84.7247 9.56002 85.154 9.85602 85.6554 10.064C86.1567 10.2667 86.714 10.368 87.3274 10.368C87.946 10.368 88.506 10.2667 89.0074 10.064C89.5087 9.85602 89.9354 9.56002 90.2874 9.17602C90.6394 8.78669 90.9114 8.31469 91.1034 7.76003C91.2954 7.20002 91.3914 6.56802 91.3914 5.86403ZM96.7559 1.39202L96.7559 5.40002L101.468 5.40002L101.468 6.66402L96.7559 6.66402L96.7559 11.592L95.2039 11.592L95.2039 0.128024L102.268 0.128024L102.268 1.39202L96.7559 1.39202ZM105.803 1.39202L105.803 5.40002L110.515 5.40002L110.515 6.66402L105.803 6.66402L105.803 11.592L104.251 11.592L104.251 0.128024L111.315 0.128024L111.315 1.39202L105.803 1.39202Z" fill="#FFFFFF" fill-opacity="1.000000" fill-rule="evenodd"/>
	</g>
</svg>
